<mxfile host="app.diagrams.net" modified="2024-05-15T08:50:30.077Z" agent="Mozilla/5.0 (Windows NT 10.0; Win64; x64) AppleWebKit/537.36 (KHTML, like Gecko) Chrome/124.0.0.0 Safari/537.36" etag="12VzqblRGRFm_3gQXQS3" version="24.4.0" type="github">
  <diagram name="Page-1" id="vw5F2ry62NzUPVOA2TTh">
    <mxGraphModel dx="1112" dy="1187" grid="0" gridSize="10" guides="1" tooltips="1" connect="1" arrows="1" fold="1" page="0" pageScale="1" pageWidth="827" pageHeight="1169" math="0" shadow="0">
      <root>
        <mxCell id="0" />
        <mxCell id="1" parent="0" />
        <mxCell id="Sv1wGybwLc0noFc5Dew0-26" value="" style="rounded=0;whiteSpace=wrap;html=1;" vertex="1" parent="1">
          <mxGeometry x="-134" y="-10" width="613" height="315" as="geometry" />
        </mxCell>
        <mxCell id="Sv1wGybwLc0noFc5Dew0-14" style="edgeStyle=none;curved=1;rounded=0;orthogonalLoop=1;jettySize=auto;html=1;exitX=1;exitY=0.3333333333333333;exitDx=0;exitDy=0;exitPerimeter=0;entryX=0;entryY=0;entryDx=0;entryDy=0;fontSize=12;startSize=8;endSize=8;" edge="1" parent="1" source="Sv1wGybwLc0noFc5Dew0-1" target="Sv1wGybwLc0noFc5Dew0-9">
          <mxGeometry relative="1" as="geometry" />
        </mxCell>
        <mxCell id="Sv1wGybwLc0noFc5Dew0-15" value="Đăng ký" style="edgeLabel;html=1;align=center;verticalAlign=middle;resizable=0;points=[];fontSize=12;" vertex="1" connectable="0" parent="Sv1wGybwLc0noFc5Dew0-14">
          <mxGeometry x="-0.0271" y="-2" relative="1" as="geometry">
            <mxPoint as="offset" />
          </mxGeometry>
        </mxCell>
        <mxCell id="Sv1wGybwLc0noFc5Dew0-1" value="User&lt;div&gt;&lt;br&gt;&lt;/div&gt;" style="shape=umlActor;verticalLabelPosition=bottom;verticalAlign=top;html=1;outlineConnect=0;" vertex="1" parent="1">
          <mxGeometry x="-83" y="63" width="30" height="60" as="geometry" />
        </mxCell>
        <mxCell id="Sv1wGybwLc0noFc5Dew0-19" style="edgeStyle=none;curved=1;rounded=0;orthogonalLoop=1;jettySize=auto;html=1;exitX=1;exitY=1;exitDx=0;exitDy=0;exitPerimeter=0;fontSize=12;startSize=8;endSize=8;" edge="1" parent="1" source="Sv1wGybwLc0noFc5Dew0-6" target="Sv1wGybwLc0noFc5Dew0-9">
          <mxGeometry relative="1" as="geometry" />
        </mxCell>
        <mxCell id="Sv1wGybwLc0noFc5Dew0-20" value="Thêm, xóa, sửa tin" style="edgeLabel;html=1;align=center;verticalAlign=middle;resizable=0;points=[];fontSize=12;" vertex="1" connectable="0" parent="Sv1wGybwLc0noFc5Dew0-19">
          <mxGeometry x="-0.0523" y="1" relative="1" as="geometry">
            <mxPoint as="offset" />
          </mxGeometry>
        </mxCell>
        <mxCell id="Sv1wGybwLc0noFc5Dew0-6" value="Member" style="shape=umlActor;verticalLabelPosition=bottom;verticalAlign=top;html=1;outlineConnect=0;" vertex="1" parent="1">
          <mxGeometry x="-83" y="199" width="30" height="60" as="geometry" />
        </mxCell>
        <mxCell id="Sv1wGybwLc0noFc5Dew0-9" value="Startup" style="ellipse;whiteSpace=wrap;html=1;aspect=fixed;" vertex="1" parent="1">
          <mxGeometry x="121" y="133" width="80" height="80" as="geometry" />
        </mxCell>
        <mxCell id="Sv1wGybwLc0noFc5Dew0-16" style="edgeStyle=none;curved=1;rounded=0;orthogonalLoop=1;jettySize=auto;html=1;exitX=1;exitY=0.3333333333333333;exitDx=0;exitDy=0;exitPerimeter=0;entryX=0.013;entryY=0.425;entryDx=0;entryDy=0;entryPerimeter=0;fontSize=12;startSize=8;endSize=8;" edge="1" parent="1" source="Sv1wGybwLc0noFc5Dew0-6" target="Sv1wGybwLc0noFc5Dew0-9">
          <mxGeometry relative="1" as="geometry" />
        </mxCell>
        <mxCell id="Sv1wGybwLc0noFc5Dew0-17" value="Đăng nhập" style="edgeLabel;html=1;align=center;verticalAlign=middle;resizable=0;points=[];fontSize=12;" vertex="1" connectable="0" parent="Sv1wGybwLc0noFc5Dew0-16">
          <mxGeometry x="0.0111" y="1" relative="1" as="geometry">
            <mxPoint as="offset" />
          </mxGeometry>
        </mxCell>
        <mxCell id="Sv1wGybwLc0noFc5Dew0-23" style="edgeStyle=none;curved=1;rounded=0;orthogonalLoop=1;jettySize=auto;html=1;entryX=1;entryY=0.5;entryDx=0;entryDy=0;fontSize=12;startSize=8;endSize=8;" edge="1" parent="1" source="Sv1wGybwLc0noFc5Dew0-22" target="Sv1wGybwLc0noFc5Dew0-9">
          <mxGeometry relative="1" as="geometry" />
        </mxCell>
        <mxCell id="Sv1wGybwLc0noFc5Dew0-24" value="Thêm, xóa, sửa thành viên" style="edgeLabel;html=1;align=center;verticalAlign=middle;resizable=0;points=[];fontSize=12;" vertex="1" connectable="0" parent="Sv1wGybwLc0noFc5Dew0-23">
          <mxGeometry x="0.0141" y="-1" relative="1" as="geometry">
            <mxPoint x="1" as="offset" />
          </mxGeometry>
        </mxCell>
        <mxCell id="Sv1wGybwLc0noFc5Dew0-22" value="Admin" style="shape=umlActor;verticalLabelPosition=bottom;verticalAlign=top;html=1;outlineConnect=0;" vertex="1" parent="1">
          <mxGeometry x="403" y="143" width="30" height="60" as="geometry" />
        </mxCell>
        <mxCell id="Sv1wGybwLc0noFc5Dew0-31" style="edgeStyle=none;curved=1;rounded=0;orthogonalLoop=1;jettySize=auto;html=1;exitX=0.145;exitY=1;exitDx=0;exitDy=-4.35;exitPerimeter=0;fontSize=12;startSize=8;endSize=8;" edge="1" parent="1" source="Sv1wGybwLc0noFc5Dew0-27" target="Sv1wGybwLc0noFc5Dew0-9">
          <mxGeometry relative="1" as="geometry" />
        </mxCell>
        <mxCell id="Sv1wGybwLc0noFc5Dew0-32" value="Tải dữ liệu" style="edgeLabel;html=1;align=center;verticalAlign=middle;resizable=0;points=[];fontSize=12;" vertex="1" connectable="0" parent="Sv1wGybwLc0noFc5Dew0-31">
          <mxGeometry x="-0.0535" y="1" relative="1" as="geometry">
            <mxPoint as="offset" />
          </mxGeometry>
        </mxCell>
        <mxCell id="Sv1wGybwLc0noFc5Dew0-27" value="Database" style="shape=cylinder3;whiteSpace=wrap;html=1;boundedLbl=1;backgroundOutline=1;size=15;" vertex="1" parent="1">
          <mxGeometry x="327" y="8" width="60" height="68" as="geometry" />
        </mxCell>
        <mxCell id="Sv1wGybwLc0noFc5Dew0-28" style="edgeStyle=none;curved=1;rounded=0;orthogonalLoop=1;jettySize=auto;html=1;exitX=0.675;exitY=0.025;exitDx=0;exitDy=0;entryX=0;entryY=0.5;entryDx=0;entryDy=0;entryPerimeter=0;fontSize=12;startSize=8;endSize=8;exitPerimeter=0;" edge="1" parent="1" source="Sv1wGybwLc0noFc5Dew0-9" target="Sv1wGybwLc0noFc5Dew0-27">
          <mxGeometry relative="1" as="geometry" />
        </mxCell>
        <mxCell id="Sv1wGybwLc0noFc5Dew0-30" value="Lưu dữ liệu" style="edgeLabel;html=1;align=center;verticalAlign=middle;resizable=0;points=[];fontSize=12;" vertex="1" connectable="0" parent="Sv1wGybwLc0noFc5Dew0-28">
          <mxGeometry x="-0.0565" y="-2" relative="1" as="geometry">
            <mxPoint as="offset" />
          </mxGeometry>
        </mxCell>
      </root>
    </mxGraphModel>
  </diagram>
</mxfile>
